<svg id="visual" viewBox="0 0 900 450" width="900" height="450" xmlns="http://www.w3.org/2000/svg" xmlns:xlink="http://www.w3.org/1999/xlink" version="1.1"><rect x="0" y="0" width="900" height="450" fill="#000"></rect><path d="M0 393L8.8 392.8C17.7 392.7 35.3 392.3 53 391.2C70.7 390 88.3 388 106 395.8C123.7 403.7 141.3 421.3 159 428.2C176.7 435 194.3 431 212 421.8C229.7 412.7 247.3 398.3 265 390C282.7 381.7 300.3 379.3 318 387C335.7 394.7 353.3 412.3 371 411.5C388.7 410.7 406.3 391.3 423.8 389.3C441.3 387.3 458.7 402.7 476.2 403.3C493.7 404 511.3 390 529 382.5C546.7 375 564.3 374 582 375.7C599.7 377.3 617.3 381.7 635 387.3C652.7 393 670.3 400 688 400.5C705.7 401 723.3 395 741 400.5C758.7 406 776.3 423 794 421.3C811.7 419.7 829.3 399.3 847 390C864.7 380.7 882.3 382.3 891.2 383.2L900 384L900 451L891.2 451C882.3 451 864.7 451 847 451C829.3 451 811.7 451 794 451C776.3 451 758.7 451 741 451C723.3 451 705.7 451 688 451C670.3 451 652.7 451 635 451C617.3 451 599.7 451 582 451C564.3 451 546.7 451 529 451C511.3 451 493.7 451 476.2 451C458.7 451 441.3 451 423.8 451C406.3 451 388.7 451 371 451C353.3 451 335.7 451 318 451C300.3 451 282.7 451 265 451C247.3 451 229.7 451 212 451C194.3 451 176.7 451 159 451C141.3 451 123.7 451 106 451C88.3 451 70.7 451 53 451C35.3 451 17.7 451 8.8 451L0 451Z" fill="#fff" stroke-linecap="round" stroke-linejoin="miter"></path></svg>